REM DIRINDEX 1\2,1\3,1\4
REM DIRNAME folder01,folder02,folder03,folder04
TITLE ""
FILE "DISC1Track17.mp3" MP3
  TRACK 01 AUDIO
    TITLE "0:"
    INDEX 01 00:00:00
  TRACK 02 AUDIO
    TITLE "4:cjc105_1429"
    INDEX 01 00:00:17
  TRACK 03 AUDIO
    TITLE "0:"
    INDEX 01 00:03:45
  TRACK 04 AUDIO
    TITLE "2:cjc105_1430"
    INDEX 01 00:04:17
  TRACK 05 AUDIO
    TITLE "3:cjc105_1431"
    INDEX 01 00:05:63
  TRACK 06 AUDIO
    TITLE "0:"
    INDEX 01 00:07:23
  TRACK 07 AUDIO
    TITLE "2:cjc105_1432"
    INDEX 01 00:07:37
  TRACK 08 AUDIO
    TITLE "3:cjc105_1433"
    INDEX 01 00:08:64
  TRACK 09 AUDIO
    TITLE "0:"
    INDEX 01 00:10:14
  TRACK 10 AUDIO
    TITLE "2:cjc105_1434"
    INDEX 01 00:10:31
  TRACK 11 AUDIO
    TITLE "3:cjc105_1435"
    INDEX 01 00:12:09
  TRACK 12 AUDIO
    TITLE "0:"
    INDEX 01 00:13:37
  TRACK 13 AUDIO
    TITLE "2:cjc105_1436"
    INDEX 01 00:13:53
  TRACK 14 AUDIO
    TITLE "3:cjc105_1437"
    INDEX 01 00:15:23
  TRACK 15 AUDIO
    TITLE "0:"
    INDEX 01 00:17:12
  TRACK 16 AUDIO
    TITLE "2:cjc105_1438"
    INDEX 01 00:17:35
  TRACK 17 AUDIO
    TITLE "3:cjc105_1439"
    INDEX 01 00:18:56
  TRACK 18 AUDIO
    TITLE "0:"
    INDEX 01 00:20:06
  TRACK 19 AUDIO
    TITLE "2:cjc105_1440"
    INDEX 01 00:20:22
  TRACK 20 AUDIO
    TITLE "3:cjc105_1441"
    INDEX 01 00:21:53
  TRACK 21 AUDIO
    TITLE "0:"
    INDEX 01 00:22:68
  TRACK 22 AUDIO
    TITLE "2:cjc105_1442"
    INDEX 01 00:23:06
  TRACK 23 AUDIO
    TITLE "3:cjc105_1443"
    INDEX 01 00:25:03
  TRACK 24 AUDIO
    TITLE "0:"
    INDEX 01 00:26:11
  TRACK 25 AUDIO
    TITLE "2:cjc105_1444"
    INDEX 01 00:26:24
  TRACK 26 AUDIO
    TITLE "3:cjc105_1445"
    INDEX 01 00:28:12
  TRACK 27 AUDIO
    TITLE "0:"
    INDEX 01 00:29:54
  TRACK 28 AUDIO
    TITLE "2:cjc105_1446"
    INDEX 01 00:29:66
  TRACK 29 AUDIO
    TITLE "3:cjc105_1447"
    INDEX 01 00:31:59
  TRACK 30 AUDIO
    TITLE "0:"
    INDEX 01 00:33:26
  TRACK 31 AUDIO
    TITLE "2:cjc105_1448"
    INDEX 01 00:33:46
  TRACK 32 AUDIO
    TITLE "3:cjc105_1449"
    INDEX 01 00:35:21
  TRACK 33 AUDIO
    TITLE "0:"
    INDEX 01 00:36:52
  TRACK 34 AUDIO
    TITLE "2:cjc105_1450"
    INDEX 01 00:36:64
  TRACK 35 AUDIO
    TITLE "3:cjc105_1451"
    INDEX 01 00:38:10
  TRACK 36 AUDIO
    TITLE "0:"
    INDEX 01 00:39:41
  TRACK 37 AUDIO
    TITLE "2:cjc105_1452"
    INDEX 01 00:39:56
  TRACK 38 AUDIO
    TITLE "3:cjc105_1453"
    INDEX 01 00:41:04
  TRACK 39 AUDIO
    TITLE "0:"
    INDEX 01 00:42:41
  TRACK 40 AUDIO
    TITLE "2:cjc105_1454"
    INDEX 01 00:42:57
  TRACK 41 AUDIO
    TITLE "3:cjc105_1455"
    INDEX 01 00:43:74
  TRACK 42 AUDIO
    TITLE "0:"
    INDEX 01 00:45:41
  TRACK 43 AUDIO
    TITLE "2:cjc105_1456"
    INDEX 01 00:45:53
  TRACK 44 AUDIO
    TITLE "3:cjc105_1457"
    INDEX 01 00:46:74
  TRACK 45 AUDIO
    TITLE "0:"
    INDEX 01 00:48:36
  TRACK 46 AUDIO
    TITLE "2:cjc105_1458"
    INDEX 01 00:48:51
  TRACK 47 AUDIO
    TITLE "3:cjc105_1459"
    INDEX 01 00:50:15
  TRACK 48 AUDIO
    TITLE "0:"
    INDEX 01 00:51:54
  TRACK 49 AUDIO
    TITLE "2:cjc105_1460"
    INDEX 01 00:51:69
  TRACK 50 AUDIO
    TITLE "3:cjc105_1461"
    INDEX 01 00:53:39
  TRACK 51 AUDIO
    TITLE "0:"
    INDEX 01 00:54:74
  TRACK 52 AUDIO
    TITLE "2:cjc105_1462"
    INDEX 01 00:55:20
  TRACK 53 AUDIO
    TITLE "3:cjc105_1463"
    INDEX 01 00:56:59
  TRACK 54 AUDIO
    TITLE "0:"
    INDEX 01 00:59:14
  TRACK 55 AUDIO
    TITLE "2:cjc105_1464"
    INDEX 01 00:59:26
  TRACK 56 AUDIO
    TITLE "3:cjc105_1465"
    INDEX 01 01:00:70
  TRACK 57 AUDIO
    TITLE "0:"
    INDEX 01 01:02:32
  TRACK 58 AUDIO
    TITLE "2:cjc105_1466"
    INDEX 01 01:02:42
  TRACK 59 AUDIO
    TITLE "3:cjc105_1467"
    INDEX 01 01:04:48
  TRACK 60 AUDIO
    TITLE "0:"
    INDEX 01 01:06:67
